<?xml version="1.0" ?><!DOCTYPE svg  PUBLIC '-//W3C//DTD SVG 1.1//EN'  'http://www.w3.org/Graphics/SVG/1.1/DTD/svg11.dtd'><svg enable-background="new 0 0 512 512" height="512px" id="Calque_1" version="1.1" viewBox="0 0 512 512" width="512px" xml:space="preserve" xmlns="http://www.w3.org/2000/svg" xmlns:xlink="http://www.w3.org/1999/xlink"><g><path d="M415.39,152.14c-32.601-24.2-50.39-54.261-57.93-69.601h27.31C389.611,90.619,402.3,113.629,415.39,152.14z   " fill="#DAE8EB"/><path d="M154.63,82.539c-7.521,15.33-25.28,45.41-58.05,69.67c4.279-12.6,8.52-23.55,12.449-32.85   c8.12-19.17,14.94-31.38,18.19-36.82H154.63z" fill="#DAE8EB"/><path d="M194.39,403.638c-1.08,4.32-2.05,8.352-2.899,11.961c-1.23,5.279-2.2,9.68-2.881,12.85   c-8.609,0.67-17.22,1.012-25.67,1.012c-55.42,0-92.8-14.551-104.529-19.832c0.029-8.049,0.17-15.92,0.369-23.658   c3.58,1.148,8.08,2.5,13.431,3.93c22.93,6.16,61.51,13.881,110.54,13.881C186.56,403.779,190.45,403.73,194.39,403.638z" fill="#DAE8EB"/><path d="M453.59,409.638c-11.689,5.291-48.88,19.82-104.53,19.82c-8.449,0-17.06-0.34-25.67-1.01   c-1.149-5.34-3.12-14.17-5.779-24.811c3.899,0.09,7.75,0.141,11.54,0.141c60.569,0,105.189-11.801,124.069-17.84   C453.42,393.689,453.56,401.58,453.59,409.638z" fill="#DAE8EB"/><path d="M452.691,370.289c-0.24,0.08-0.46,0.16-0.65,0.221c-2.06,0.689-4.67,1.52-7.8,2.449   c-1.99,0.59-4.2,1.221-6.61,1.871c-12.5,3.4-30.46,7.479-52.68,10.34c-5.61,0.719-11.49,1.369-17.63,1.91   c-16.24,1.42-34.23,2.09-53.641,1.43c-2.199-8.141-4.699-16.779-7.43-25.391c-3.38-10.619-6.74-20.061-10.11-28.369   c-12.01-29.67-24.09-44.76-37.199-46.701c-0.07-0.01-0.141-0.02-0.21-0.029C258.64,288,258.6,288,258.6,288   c-0.859-0.111-1.729-0.17-2.6-0.17c-17.96,0-33.92,23.92-50.25,75.289c-0.02,0.061-0.04,0.121-0.06,0.18   c-2.7,8.551-5.19,17.131-7.37,25.211c-71.06,2.42-123.25-12.881-139.01-18.189c3.57-86,17.14-151.191,30.07-195.301   c52.04-31.08,75.26-77.25,81.8-92.48h62.71c-2.6,3.31-5.21,7.21-7.47,11.68c-7.69,15.15-12.92,39.87,5.82,71.57   c1.4,2.37,3.9,3.69,6.46,3.69c1.3,0,2.61-0.34,3.81-1.05c3.25-1.91,4.52-5.89,3.12-9.28c0,0-0.01-0.02-0.02-0.07   c-0.13-0.31-0.28-0.62-0.46-0.92c-21.58-36.53-5.4-60.88,4.73-71.25c7.8,15.63,23.8,50.2,26.51,75.86c0.44,4.12,4.13,7.1,8.25,6.66   c4.12-0.43,7.11-4.12,6.67-8.24c-2.85-26.98-18.27-61.28-26.829-78.65h76.399c6.53,15.22,29.73,61.36,81.73,92.44   c8.159,27.83,16.569,64.05,22.569,108.61c2.12,15.76,3.94,32.57,5.34,50.42C451.43,345.66,452.17,357.75,452.691,370.289z" fill="#F56D38"/><path d="M213.23,82.539c-66.12,92.771-214.5,325.05-7.54,280.759   c-2.699,8.551-5.189,17.131-7.37,25.211c-71.06,2.42-123.25-12.881-139.01-18.189c3.57-86,17.141-151.19,30.07-195.299   c52.04-31.08,75.26-77.25,81.8-92.48L213.23,82.539L213.23,82.539z" enable-background="new    " opacity="0.3"/><path d="M367.321,387.08c-16.24,1.42-34.229,2.09-53.641,1.43   c-2.199-8.141-4.699-16.779-7.43-25.391c-3.381-10.619-6.74-20.061-10.11-28.369c-12.069-29.83-24.22-44.92-37.409-46.73   C262.24,288.429,334.49,298.08,367.321,387.08z" enable-background="new    " opacity="0.3"/><path d="M452.691,370.289c-3.381,1.141-1.84,0.961-8.45,2.75   c-1.87-67.67-39.739-192.54-39.739-192.54c-32.75-0.739-97.811-63.29-119.79-97.96h56.17c6.529,15.221,29.729,61.36,81.729,92.44   c8.159,27.83,16.569,64.05,22.569,108.61c2.12,15.76,3.939,32.57,5.34,50.42C451.43,345.66,452.17,357.75,452.691,370.289z" enable-background="new    " fill="#FFFFFF" opacity="0.7"/><path d="M249.25,107.499c-11.69,15.59-4.04,49.82-3.64,51.58   c-0.13-0.31-0.28-0.62-0.46-0.92c-21.58-36.53-5.4-60.88,4.73-71.25c7.8,15.63,23.8,50.2,26.51,75.86   C268.531,140.789,249.25,107.499,249.25,107.499z" enable-background="new    " opacity="0.3"/><g><path d="M154.63,82.539c-7.521,15.33-25.28,45.41-58.05,69.67    c4.279-12.6,8.52-23.55,12.449-32.85c20.881-6.15,43.811-35.58,44.771-36.82H154.63z" enable-background="new    " opacity="0.3"/><path d="M191.49,415.599c-1.23,5.279-2.2,9.68-2.881,12.85    c-8.609,0.67-17.22,1.012-25.67,1.012c-55.42,0-92.8-14.551-104.529-19.832c0.029-8.049,0.17-15.92,0.369-23.658    c3.58,1.148,8.08,2.5,13.431,3.93C78.78,408.789,104.37,429.73,191.49,415.599z" enable-background="new    " opacity="0.3"/><path d="M194.39,403.638c-1.08,4.32-2.05,8.352-2.899,11.961    C108.81,415.369,72.21,389.9,72.21,389.9c22.93,6.158,61.51,13.879,110.54,13.879C186.56,403.779,190.45,403.73,194.39,403.638z" enable-background="new    " fill="#FFFFFF" opacity="0.7"/></g><g><path d="M357.369,82.539c7.521,15.33,25.28,45.41,58.051,69.67    c-4.279-12.6-8.521-23.55-12.449-32.85c-20.881-6.15-43.812-35.58-44.771-36.82H357.369z" enable-background="new    " opacity="0.3"/><path d="M320.51,415.599c1.229,5.279,2.2,9.68,2.881,12.85    c8.609,0.67,17.219,1.012,25.67,1.012c55.42,0,92.799-14.551,104.529-19.832c-0.029-8.049-0.17-15.92-0.369-23.658    c-3.58,1.148-8.08,2.5-13.432,3.93C433.221,408.789,407.63,429.73,320.51,415.599z" enable-background="new    " opacity="0.3"/><path d="M317.61,403.638c1.08,4.32,2.051,8.352,2.9,11.961    c82.68-0.23,119.279-25.699,119.279-25.699c-22.931,6.158-61.511,13.879-110.54,13.879    C325.44,403.779,321.55,403.73,317.61,403.638z" enable-background="new    " fill="#FFFFFF" opacity="0.7"/></g></g></svg>