<?xml version="1.0" ?><svg enable-background="new 0 0 64 64" id="Слой_1" version="1.1" viewBox="0 0 64 64" xml:space="preserve" xmlns="http://www.w3.org/2000/svg" xmlns:xlink="http://www.w3.org/1999/xlink"><g id="row_2"><g id="bedside_x5F_table"><path d="M49.6,32H14.4c-0.3,0-0.5-0.1-0.7-0.3l-0.9-0.9c-0.3-0.3-0.1-0.9,0.4-0.9h37.6c0.4,0,0.7,0.5,0.4,0.9    l-0.9,0.9C50.1,31.9,49.9,32,49.6,32z" fill="#FFE0B2"/><g><path d="M18.5,61h-3c-0.3,0-0.5-0.2-0.5-0.5V32h4v28.5C19,60.8,18.8,61,18.5,61z" fill="#FFECB3"/><path d="M48.5,61h-3c-0.3,0-0.5-0.2-0.5-0.5V32h4v28.5C49,60.8,48.8,61,48.5,61z" fill="#FFECB3"/></g><g><rect fill="#FFF9C4" height="4" width="26" x="19" y="53"/><rect fill="#FFF9C4" height="2" width="26" x="19" y="32"/><rect fill="#FFF9C4" height="2" width="26" x="19" y="44"/></g><rect fill="#FFE0B2" height="10" width="26" x="19" y="34"/><circle cx="32" cy="39" fill="#B0BEC5" r="2"/><rect fill="#B0BEC5" height="1" width="11" x="21" y="29"/><rect fill="#546E7A" height="16.6" width="1" x="26" y="12.4"/><path d="M36.9,13H16.1c-0.3,0-0.6-0.3-0.5-0.6l2.3-9C18,3.2,18.2,3,18.5,3h16C34.8,3,35,3.2,35,3.4l2.3,9    C37.4,12.7,37.2,13,36.9,13z" fill="#FF5722"/></g></g></svg>