<?xml version="1.0" ?><svg viewBox="0 0 128 128" xmlns="http://www.w3.org/2000/svg"><defs><style>.cls-1{fill:#c3edf5;}.cls-2{fill:#87dbec;}.cls-3{fill:#7ad0cb;}.cls-4{fill:#4dbab4;}.cls-5{fill:#4d91bb;}</style></defs><title/><g data-name="06 Case Study" id="_06_Case_Study"><polygon class="cls-1" points="62.74 102.81 24.36 63.98 63.17 25.17 68.83 30.83 35.64 64.02 68.43 97.19 62.74 102.81"/><path class="cls-2" d="M55.63,32.72a11.88,11.88,0,0,0,1.48,1.83l4,4,7.72-7.72-5.66-5.66Z"/><path class="cls-2" d="M33.59,73.32a10,10,0,0,0,5.69-5.62L35.64,64l3.66-3.66a10,10,0,0,0-5.66-5.66L24.36,64Z"/><path class="cls-2" d="M68.43,97.19l-7.94-8a12.06,12.06,0,0,0-5.69,5.62l7.94,8Z"/><circle class="cls-3" cx="65.59" cy="100" r="10"/><path class="cls-4" d="M75.59,100a10,10,0,0,0-.37-2.67L55.59,100l19.36,3.51A10,10,0,0,0,75.59,100Z"/><rect class="cls-5" height="12" width="72" x="30" y="100"/><circle class="cls-3" cx="30" cy="64" r="8"/><path class="cls-3" d="M68.72,43.34a10,10,0,0,0,16.09-2.68,9.85,9.85,0,0,0-1.92-11.43L72.63,19A9.85,9.85,0,0,0,61.2,17a10,10,0,0,0-2.68,16.09Z"/><path class="cls-4" d="M65.71,40.33l3,3a10,10,0,0,0,16.09-2.68,9.85,9.85,0,0,0-1.92-11.43L79.67,26a25.56,25.56,0,0,0-14,14.32Z"/><path class="cls-5" d="M72.86,66.07A23.43,23.43,0,0,1,106,32.93Z"/></g></svg>